<svg enable-background="new 0 0 2576 1388" viewBox="0 0 2576 1388" xmlns="http://www.w3.org/2000/svg"><path d="m0 0h2576v1388h-2576z" fill="#eaeaea"/><path d="m82.7 208h450v1180h-450z" fill="#fff"/><path d="m86.7 212h442v109.5h-442z" fill="#3fb4ff"/><path d="m524.7 216v101.5h-434v-101.5zm8-8h-450v117.5h450z" fill="#fff"/><path d="m86.6 321.6h442v109.9h-442z" fill="#a6d800"/><path d="m524.6 325.6v101.9h-434v-101.9zm8-8h-450v117.9h450z" fill="#fff"/><g transform="translate(-909.38484 270.48979)"><path d="m996 558.59998h437.6221v554.59998h-437.6221z" fill="#af3552" stroke-width="1.072157"/><path d="m1438.7 562.6v546.6h-438.7v-546.6zm2-8h-448.7v562.6h448.7z" fill="#fff"/></g><path d="m86.7 431.3h442v650.4h-442z" fill="#ffae2e"/><path d="m524.7 435.3v642.4h-434v-642.4zm8-8h-450v658.4h450z" fill="#fff"/><path d="m612.7 208h768v1180h-768z" fill="#fff"/><path d="m616.7 321.5h760v237.5h-760z" fill="#a6d800"/><path d="m1372.7 325.5v229.5h-752v-229.5zm8-8h-768v245.5h768z" fill="#fff"/><path d="m616.7 558.6h380.7v554.6h-380.7z" fill="#ffae2e"/><path d="m993.4 562.6v546.6h-372.7v-546.6zm8-8h-388.7v562.6h388.7z" fill="#fff"/><path d="m1466 208h1024v1180h-1024z" fill="#fff"/><path d="m1502.2 212h940.33582v71.199997h-940.33582z" fill="#3fb4ff" stroke-width="1.400822"/><path d="m2447.4 216v63.2h-941.2v-63.2zm4-8h-953.2v79.2h953.2z" fill="#fff"/><path d="m1502 282.4h237.9v889.2h-237.9z" fill="#a6d800"/><path d="m1735.9 286.4v881.2h-229.9v-881.2zm8-8h-245.9v897.2h245.9z" fill="#fff"/><path d="m616.7 212h760v109.5h-760z" fill="#3fb4ff"/><path d="m1372.7 216v101.5h-752v-101.5zm8-8h-768v117.5h768z" fill="#fff"/><path d="m996 558.6h380.7v554.6h-380.7z" fill="#af3552"/><path d="m1372.7 562.6v546.6h-372.7v-546.6zm8-8h-388.7v562.6h388.7z" fill="#fff"/><path d="m1739.4 282.4h472.1v889.2h-472.1z" fill="#ffae2e"/><path d="m2207.5 286.4v881.2h-464.1v-881.2zm8-8h-480.1v897.2h480.1z" fill="#fff"/><path d="m2209 282.4h237.9v889.2h-237.9z" fill="#af3552"/><path d="m2442.9 286.4v881.2h-229.9v-881.2zm8-8h-245.9v897.2h245.9z" fill="#fff"/><path d="m117.7 464.4h173.1v173.1h-173.1z" fill="#c4c4c4"/><path d="m286.7 468.4v165.1h-165v-165.1zm8-8h-181v181.1h181.1z" fill="#fff"/><path d="m324.1 464.4h173.1v173.1h-173.1z" fill="#c4c4c4"/><path d="m493.1 468.4v165.1h-165v-165.1zm8-8h-181v181.1h181.1v-181.1z" fill="#fff"/><path d="m117.7 672.4h173.1v173.1h-173.1z" fill="#c4c4c4"/><path d="m286.7 676.4v165.1h-165v-165.1zm8-8h-181v181.1h181.1z" fill="#fff"/><path d="m324.1 672.4h173.1v173.1h-173.1z" fill="#c4c4c4"/><path d="m493.1 676.4v165.1h-165v-165.1zm8-8h-181v181.1h181.1v-181.1z" fill="#fff"/><path d="m117.7 879.4h173.1v173.1h-173.1z" fill="#c4c4c4"/><path d="m286.7 883.4v165.1h-165v-165.1zm8-8h-181v181.1h181.1z" fill="#fff"/><path d="m324.1 879.4h173.1v173.1h-173.1z" fill="#c4c4c4"/><path d="m493.1 883.4v165.1h-165v-165.1zm8-8h-181v181.1h181.1v-181.1z" fill="#fff"/><path d="m649.3 592.4h143.1v143.1h-143.1z" fill="#c4c4c4"/><path d="m788.4 596.4v135.1h-135.1v-135.1zm8-8h-151.1v151.1h151.1z" fill="#fff"/><path d="m821.5 592.4h143.1v143.1h-143.1z" fill="#c4c4c4"/><path d="m960.6 596.4v135.1h-135.1v-135.1zm8-8h-151.1v151.1h151.1z" fill="#fff"/><path d="m649.3 765.9h143.1v143.1h-143.1z" fill="#c4c4c4"/><path d="m788.4 769.9v135.1h-135.1v-135.1zm8-8h-151.1v151.1h151.1z" fill="#fff"/><path d="m821.5 765.9h143.1v143.1h-143.1z" fill="#c4c4c4"/><path d="m960.6 769.9v135.1h-135.1v-135.1zm8-8h-151.1v151.1h151.1z" fill="#fff"/><path d="m649.3 938.7h143.1v143.1h-143.1z" fill="#c4c4c4"/><path d="m788.4 942.7v135.1h-135.1v-135.1zm8-8h-151.1v151.1h151.1z" fill="#fff"/><path d="m821.5 938.7h143.1v143.1h-143.1z" fill="#c4c4c4"/><path d="m960.6 942.7v135.1h-135.1v-135.1zm8-8h-151.1v151.1h151.1z" fill="#fff"/><path d="m1763.9 305.2h125.1v119.7h-125.1z" fill="#c4c4c4"/><path d="m1885 309.2v111.7h-117.1v-111.7zm8-8h-133.1v127.7h133.1z" fill="#fff"/><path d="m1913.3 305.2h272.2v119.7h-272.2z" fill="#ec8fef"/><path d="m2181.5 309.2v111.7h-264.2v-111.7zm8-8h-280.2v127.7h280.2z" fill="#fff"/><path d="m1763.9 448.9h125.1v119.7h-125.1z" fill="#c4c4c4"/><path d="m1885 452.9v111.7h-117.1v-111.7zm8-8h-133.1v127.7h133.1z" fill="#fff"/><path d="m1913.3 448.9h272.2v119.7h-272.2z" fill="#ec8fef"/><path d="m2181.5 452.9v111.7h-264.2v-111.7zm8-8h-280.2v127.7h280.2z" fill="#fff"/><path d="m1763.9 592h125.1v119.7h-125.1z" fill="#c4c4c4"/><path d="m1885 596v111.7h-117.1v-111.7zm8-8h-133.1v127.7h133.1z" fill="#fff"/><path d="m1913.3 592h272.2v119.7h-272.2z" fill="#ec8fef"/><path d="m2181.5 596v111.7h-264.2v-111.7zm8-8h-280.2v127.7h280.2z" fill="#fff"/><path d="m1763.9 737.7h125.1v119.7h-125.1z" fill="#c4c4c4"/><path d="m1885 741.7v111.7h-117.1v-111.7zm8-8h-133.1v127.7h133.1z" fill="#fff"/><path d="m1913.3 737.7h272.2v119.7h-272.2z" fill="#ec8fef"/><path d="m2181.5 741.7v111.7h-264.2v-111.7zm8-8h-280.2v127.7h280.2z" fill="#fff"/><path d="m1763.9 881h125.1v119.7h-125.1z" fill="#c4c4c4"/><path d="m1885 885v111.7h-117.1v-111.7zm8-8h-133.1v127.7h133.1z" fill="#fff"/><path d="m1913.3 881h272.2v119.7h-272.2z" fill="#ec8fef"/><path d="m2181.5 885v111.7h-264.2v-111.7zm8-8h-280.2v127.7h280.2z" fill="#fff"/><path d="m1763.9 1026.8h125.1v119.7h-125.1z" fill="#c4c4c4"/><path d="m1885 1030.8v111.7h-117.1v-111.7zm8-8h-133.1v127.7h133.1z" fill="#fff"/><path d="m1913.3 1026.8h272.2v119.7h-272.2z" fill="#ec8fef"/><path d="m2181.5 1030.8v111.7h-264.2v-111.7zm8-8h-280.2v127.7h280.2z" fill="#fff"/><path d="m238.8 145.8c0-2.5-.1-4.6-.2-6.6h3.9l.2 3.9h.1c1.4-2.3 3.6-4.5 7.6-4.5 3.3 0 5.8 2 6.9 4.9h.1c.8-1.4 1.7-2.4 2.7-3.1 1.5-1.1 3.1-1.7 5.4-1.7 3.2 0 8 2.1 8 10.5v14.3h-4.5v-13.7c0-4.7-1.7-7.5-5.2-7.5-2.5 0-4.5 1.9-5.2 4-.2.6-.4 1.4-.4 2.2v15h-4.3v-14.5c0-3.9-1.7-6.7-5.1-6.7-2.8 0-4.8 2.2-5.5 4.4-.2.6-.3 1.4-.3 2.1v14.6h-4.3v-17.6z"/><path d="m302.4 151.2c0 9-6.2 12.9-12.1 12.9-6.6 0-11.6-4.8-11.6-12.5 0-8.1 5.3-12.9 12-12.9 7 0 11.7 5.1 11.7 12.5zm-19.2.2c0 5.3 3 9.3 7.4 9.3 4.2 0 7.4-4 7.4-9.4 0-4.1-2.1-9.3-7.3-9.3s-7.5 4.8-7.5 9.4z"/><path d="m307.7 163.5c.1-1.6.2-4.1.2-6.3v-29.2h4.4v15.2h.1c1.5-2.7 4.4-4.5 8.3-4.5 6 0 10.3 5 10.2 12.4 0 8.7-5.5 13-10.9 13-3.5 0-6.3-1.3-8.1-4.5h-.1l-.2 4h-3.9zm4.6-9.7c0 .6.1 1.1.2 1.6.9 3.1 3.4 5.2 6.6 5.2 4.6 0 7.4-3.8 7.4-9.3 0-4.9-2.5-9-7.2-9-3 0-5.8 2.1-6.7 5.4-.1.5-.2 1.1-.2 1.8v4.3z"/><path d="m341.3 132.5c.1 1.5-1 2.7-2.8 2.7-1.6 0-2.7-1.2-2.7-2.7s1.2-2.8 2.8-2.8 2.7 1.2 2.7 2.8zm-4.9 31v-24.2h4.4v24.2z"/><path d="m348.1 128h4.4v35.5h-4.4z"/><path d="m362.3 152.2c.1 6 3.9 8.4 8.3 8.4 3.2 0 5.1-.5 6.7-1.2l.8 3.2c-1.6.7-4.2 1.5-8.1 1.5-7.5 0-11.9-4.9-11.9-12.2s4.3-13.1 11.4-13.1c7.9 0 10 7 10 11.4 0 .9-.1 1.6-.1 2zm12.9-3.2c.1-2.8-1.1-7.2-6.1-7.2-4.5 0-6.4 4.1-6.8 7.2z"/><path d="m941.4 132.3v7h6.3v3.4h-6.3v13.1c0 3 .8 4.7 3.3 4.7 1.2 0 2-.1 2.5-.3l.2 3.3c-.8.4-2.2.6-3.9.6-2 0-3.7-.6-4.8-1.9-1.2-1.3-1.7-3.5-1.7-6.3v-13.2h-3.8v-3.4h3.8v-5.8z"/><path d="m966.1 163.5-.4-3.1h-.2c-1.3 1.9-4 3.6-7.4 3.6-4.9 0-7.4-3.5-7.4-7 0-5.9 5.2-9.1 14.6-9v-.5c0-2-.5-5.6-5.5-5.6-2.2 0-4.6.7-6.3 1.8l-1-2.9c2-1.3 4.9-2.1 8-2.1 7.4 0 9.2 5.1 9.2 9.9v9.1c0 2.1.1 4.2.4 5.8zm-.7-12.4c-4.8-.1-10.3.8-10.3 5.5 0 2.9 1.9 4.2 4.2 4.2 3.2 0 5.2-2 5.9-4.1.1-.4.2-1 .2-1.4z"/><path d="m976.6 163.5c.1-1.6.2-4.1.2-6.3v-29.2h4.4v15.2h.1c1.5-2.7 4.4-4.5 8.3-4.5 6 0 10.2 5 10.2 12.4 0 8.7-5.5 13-10.9 13-3.5 0-6.3-1.3-8.1-4.5h-.1l-.2 4h-3.9zm4.5-9.7c0 .6.1 1.1.2 1.6.8 3.1 3.4 5.2 6.6 5.2 4.6 0 7.4-3.8 7.4-9.3 0-4.9-2.5-9-7.2-9-3 0-5.8 2.1-6.7 5.4-.1.5-.2 1.1-.2 1.8v4.3z"/><path d="m1005.2 128h4.4v35.5h-4.4z"/><path d="m1019.5 152.2c.1 6 3.9 8.4 8.3 8.4 3.2 0 5-.5 6.7-1.2l.8 3.2c-1.5.7-4.2 1.5-8.1 1.5-7.5 0-11.9-4.9-11.9-12.2s4.3-13.1 11.4-13.1c7.9 0 10 7 10 11.4 0 .9-.1 1.6-.2 2zm12.9-3.2c.1-2.8-1.1-7.2-6.1-7.2-4.5 0-6.4 4.1-6.8 7.2z"/><path d="m1047.4 132.3v7h6.3v3.4h-6.3v13.1c0 3 .8 4.7 3.3 4.7 1.2 0 2-.1 2.5-.3l.2 3.3c-.8.4-2.2.6-3.9.6-2 0-3.7-.6-4.8-1.9-1.2-1.3-1.7-3.5-1.7-6.3v-13.2h-3.8v-3.4h3.8v-5.8z"/><path d="m1917.4 128v29.3c0 2.2 0 4.6.2 6.3h-4l-.2-4.2h-.1c-1.4 2.7-4.3 4.8-8.3 4.8-5.9 0-10.4-5-10.4-12.3 0-8.1 5-13 10.9-13 3.7 0 6.2 1.8 7.3 3.7h.1v-14.6zm-4.4 21.1c0-.5 0-1.3-.2-1.9-.6-2.8-3-5.1-6.4-5.1-4.5 0-7.2 4-7.2 9.4 0 4.9 2.4 9 7.2 9 3 0 5.7-2 6.5-5.3.2-.6.2-1.2.2-1.9v-4.2z"/><path d="m1927.2 152.2c.1 6 3.9 8.4 8.3 8.4 3.2 0 5.1-.5 6.7-1.2l.8 3.2c-1.6.7-4.2 1.5-8.1 1.5-7.5 0-11.9-4.9-11.9-12.2s4.3-13.1 11.4-13.1c7.9 0 10 7 10 11.4 0 .9-.1 1.6-.1 2zm12.9-3.2c0-2.8-1.2-7.2-6.1-7.2-4.5 0-6.4 4.1-6.8 7.2z"/><path d="m1949.2 159c1.3.9 3.6 1.8 5.8 1.8 3.2 0 4.7-1.6 4.7-3.6 0-2.1-1.2-3.2-4.5-4.5-4.4-1.5-6.4-4-6.4-6.9 0-3.9 3.1-7.1 8.3-7.1 2.5 0 4.6.7 6 1.5l-1.1 3.2c-1-.6-2.7-1.4-5-1.4-2.6 0-4 1.5-4 3.3 0 2 1.4 2.9 4.6 4.1 4.2 1.6 6.4 3.7 6.4 7.3 0 4.3-3.3 7.3-9.1 7.3-2.6 0-5.1-.6-6.8-1.6z"/><path d="m1973.9 150.4h.1c.6-.9 1.5-1.9 2.1-2.8l7.1-8.4h5.3l-9.4 10 10.7 14.3h-5.4l-8.4-11.6-2.2 2.5v9.1h-4.3v-35.5h4.3v22.4z"/><path d="m1998.3 132.3v7h6.3v3.4h-6.3v13.1c0 3 .8 4.7 3.3 4.7 1.2 0 2-.1 2.5-.3l.2 3.3c-.8.4-2.2.6-3.9.6-2 0-3.7-.6-4.8-1.9-1.2-1.3-1.7-3.5-1.7-6.3v-13.2h-3.8v-3.4h3.8v-5.8z"/><path d="m2031.2 151.2c0 9-6.2 12.9-12.1 12.9-6.6 0-11.6-4.8-11.6-12.5 0-8.1 5.3-12.9 12-12.9 7 0 11.7 5.1 11.7 12.5zm-19.2.2c0 5.3 3 9.3 7.4 9.3 4.2 0 7.4-4 7.4-9.4 0-4.1-2.1-9.3-7.3-9.3s-7.5 4.8-7.5 9.4z"/><path d="m2036.7 147.2c0-3.1-.1-5.6-.2-7.9h4l.2 4.2h.1c1.8-3 4.7-4.7 8.6-4.7 5.9 0 10.3 5 10.3 12.3 0 8.7-5.3 13-11 13-3.2 0-6-1.4-7.5-3.8h-.1v13.2h-4.3v-26.3zm4.4 6.4c0 .6.1 1.2.2 1.8.8 3 3.5 5.1 6.6 5.1 4.7 0 7.4-3.8 7.4-9.4 0-4.9-2.6-9-7.2-9-3 0-5.8 2.2-6.7 5.5-.1.5-.3 1.2-.3 1.8z"/></svg>